<?xml version="1.0" encoding="UTF-8"?>
<svg viewBox="0 0 966 966" version="1.1" xmlns="http://www.w3.org/2000/svg" xmlns:xlink="http://www.w3.org/1999/xlink">
    <!-- Generator: Sketch 55.2 (78181) - https://sketchapp.com -->
    <title>404</title>
    <desc>Created with Sketch.</desc>
    <g id="404" stroke="none" stroke-width="1" fill="none" fill-rule="evenodd">
        <g id="Group-5" transform="translate(260.000000, 33.000000)">
            <path d="M0,843.279818 C0,845.578771 1.86610213,847.441493 4.16799457,847.441493 L432.832005,847.441493 C435.133898,847.441493 437,845.578771 437,843.279818 L437,701.603169 C437,699.305213 435.133898,697.441493 432.832005,697.441493 L4.16799457,697.441493 C1.86610213,697.441493 0,699.305213 0,701.603169 L0,843.279818 Z" id="Fill-21" fill="#010103"></path>
            <path d="M164.44,797.551493 L137.71,797.551493 L137.71,784.571493 L160.92,730.341493 L178.63,730.341493 L178.63,785.451493 L187.76,785.451493 L187.76,797.551493 L178.63,797.551493 L178.63,819.441493 L164.44,819.441493 L164.44,797.551493 Z M164.44,785.451493 L164.44,746.731493 L150.36,785.451493 L164.44,785.451493 Z M219,820.761493 C211.446629,820.761493 205.69002,818.41485 201.73,813.721493 C197.76998,809.028136 195.79,802.758199 195.79,794.911493 L195.79,755.421493 C195.79,747.281452 197.696648,740.901516 201.51,736.281493 C205.323352,731.66147 211.153294,729.351493 219,729.351493 C226.700039,729.351493 232.493314,731.679803 236.38,736.336493 C240.266686,740.993183 242.21,747.354786 242.21,755.421493 L242.21,794.911493 C242.21,802.758199 240.23002,809.028136 236.27,813.721493 C232.30998,818.41485 226.553371,820.761493 219,820.761493 Z M219,807.671493 C224.206693,807.671493 226.81,803.34487 226.81,794.691493 L226.81,755.641493 C226.81,751.754807 226.278339,748.583172 225.215,746.126493 C224.151661,743.669814 222.080015,742.441493 219,742.441493 C215.846651,742.441493 213.756672,743.669814 212.73,746.126493 C211.703328,748.583172 211.19,751.754807 211.19,755.641493 L211.19,794.691493 C211.19,798.284844 211.758328,801.34648 212.895,803.876493 C214.031672,806.406506 216.066652,807.671493 219,807.671493 Z M278.62,797.551493 L251.89,797.551493 L251.89,784.571493 L275.1,730.341493 L292.81,730.341493 L292.81,785.451493 L301.94,785.451493 L301.94,797.551493 L292.81,797.551493 L292.81,819.441493 L278.62,819.441493 L278.62,797.551493 Z M278.62,785.451493 L278.62,746.731493 L264.54,785.451493 L278.62,785.451493 Z" id="404" fill="#FFFFFF" fill-rule="nonzero"></path>
            <g id="Group-2" transform="translate(78.000000, 363.041227)" fill="#D8D8D8" fill-rule="nonzero">
                <polygon id="Path-22" points="128.617406 1.13686838e-13 152.796875 1.13686838e-13 140.707141 57.0033417"></polygon>
                <g id="Group" transform="translate(25.000000, 65.500000) scale(-1, 1) translate(-25.000000, -65.500000) translate(0.000000, 34.000000)">
                    <polygon id="Path-22" transform="translate(25.089734, 31.501671) rotate(30.000000) translate(-25.089734, -31.501671) " points="13 3 37.1794689 3 25.0897344 60.0033417"></polygon>
                </g>
                <polygon id="Path-22" transform="translate(256.089734, 65.501671) rotate(30.000000) translate(-256.089734, -65.501671) " points="244 37 268.179469 37 256.089734 94.0033417"></polygon>
            </g>
            <path d="M467.163323,33.4192485 C468.013421,32.5804578 471.050003,30.5090529 475.981502,37.1288669 C477.814739,35.9693177 481.836201,35.1242862 482.767595,36.7233267 C482.981426,37.0907498 482.853047,37.5758567 482.520421,37.8297619 C481.341043,38.7292183 479.773507,40.2653989 478.334182,41.7651929 C475.914085,43.8263874 472.956511,46.5840883 472.298194,48.2560053 C471.143089,51.1873607 471.685958,54.6715094 471.392005,55.2981989 L463.273497,47.1263311 C461.719886,45.5487883 460.093691,42.2144736 461.597036,40.5603808 L467.435494,33.8548031 C467.330876,33.7484456 467.240778,33.5962101 467.163323,33.4192485 Z" id="Combined-Shape" fill="#D18D1E" transform="translate(471.936234, 43.869846) scale(-1, 1) rotate(52.000000) translate(-471.936234, -43.869846) "></path>
            <g id="Group-3" transform="translate(448.191343, 73.691493) rotate(-330.000000) translate(-448.191343, -73.691493) translate(383.191343, 26.191493)" fill="#010103">
                <path d="M107.470802,84.022597 C105.922508,81.1758559 94.08504,59.3764566 94.426205,59.026216 C95.813839,57.6023964 98.0967952,56.3089766 99.2648329,54.7325125 L103.857204,63.5283819 C107.567046,70.6334997 116.850845,76.2483427 128.798629,78.6349645 C129.012971,78.6776511 129.223354,78.5571337 129.157637,78.4299007 L93.9404751,10.250409 C93.4656657,9.34366508 91.5521434,9.03219002 90.3495434,9.66609346 C90.3495434,9.66609346 82.35995,13.6330037 83.6725156,18.6847842 C86.042464,27.8043616 79.1224275,34.163408 72.8260746,33.6539719 C68.6281696,33.3142837 64.50357,30.6457251 60.4522757,25.6482961 C60.6015136,27.0775674 60.8570325,28.6623876 60.7243116,30.0951358 C60.4715945,32.8232647 59.7744527,35.5654432 58.8869804,38.3511723 C61.6141324,40.635127 62.5224405,43.8624101 62.797348,46.1917544 C61.7115929,44.7713867 59.4306646,43.6081117 58.4868422,42.7599215 C58.4429142,43.1230425 58.3931064,43.4998101 58.3466612,43.877055 C61.435628,47.0718001 62.3835712,50.3151755 62.7020828,53.0148186 C61.4142988,51.3314428 58.8725095,49.8204264 57.7997763,48.922379 C57.752958,49.4091647 57.7075132,49.9055655 57.6656481,50.4065873 C60.1772242,54.1288592 62.9383443,58.8548785 63.3687274,62.4914804 C61.468888,60.011214 58.5725043,58.2094032 57.2274455,57.3114313 C57.2140256,57.6148993 57.2010106,57.9171318 57.1863584,58.2228261 C59.723123,62.5376721 63.9087487,70.0397283 64.5051607,75.0733889 C61.939258,71.721936 58.8282601,68.9812918 57.1742553,67.996335 C57.3053481,71.6519906 54.5493247,76.9456137 52.1950929,79.8496005 C52.1174336,79.9455491 52.2277018,80.0507588 52.4085169,80.0547251 C53.9531616,80.0881059 60.0462245,80.108998 65.990931,78.6031253 C72.1945898,82.5878625 78.8256834,84.8981993 84.011006,86.3171174 C84.2293268,86.3768079 84.4604247,86.2551547 84.3874842,86.1203084 C83.2103833,83.9431293 76.9609849,72.3311402 77.4332858,72.076634 C78.8474361,71.3145595 82.1788428,69.1208894 82.1788428,69.1208894 C85.8876519,76.2238411 95.1675783,81.8376172 107.110673,84.2251497 C107.326365,84.268422 107.540386,84.1504035 107.470802,84.022597 Z" id="Fill-24"></path>
                <path d="M11.6713648,72.919545 C12.4957809,70.9600999 18.7988486,55.9553185 18.6171893,55.7142438 C17.8783192,54.7342122 16.6627192,53.8439362 16.040777,52.7588375 L13.5954885,58.8131372 C11.6201181,63.7036728 6.67679628,67.5684349 0.314989366,69.2111746 C0.200859383,69.2405563 0.0888374027,69.1576027 0.123829261,69.0700268 L18.8758247,22.1412857 C19.1286452,21.5171633 20.1475338,21.3027714 20.7878792,21.7390945 C20.7878792,21.7390945 25.0420783,24.4695652 24.3431797,27.9467648 C23.0812591,34.2238765 26.7659539,38.6008825 30.1185574,38.2502316 C32.3538055,38.0164203 34.5500209,36.1796202 36.7072036,32.7398314 C36.6277392,33.7236156 36.4916837,34.8144658 36.5623533,35.8006432 C36.6969169,37.6784461 37.0681223,39.5659197 37.5406725,41.4833695 C36.0885526,43.0554423 35.604908,45.276819 35.4585287,46.8801339 C36.036658,45.9024782 37.2511783,45.1017824 37.7537331,44.5179632 C37.7771233,44.7679036 37.8036443,45.0272372 37.8283749,45.2868992 C36.1836004,47.4858796 35.6788514,49.7183328 35.5092543,51.5765287 C36.1949575,50.4178414 37.5483778,49.3777912 38.1195734,48.7596547 C38.1445026,49.094715 38.1687005,49.4363935 38.1909923,49.7812526 C36.8536596,52.3433359 35.3834527,55.5963102 35.1542877,58.0994258 C36.1658905,56.3922295 37.7081208,55.152022 38.424321,54.5339375 C38.4314666,54.742818 38.4383967,54.9508482 38.4461985,55.1612611 C37.0954537,58.1312201 34.8667439,63.2949731 34.5491739,66.7597005 C35.9154337,64.4528563 37.5719391,62.5664389 38.452643,61.8884815 C38.3828403,64.4047121 39.8503333,68.0483747 41.1038853,70.0472227 C41.1452364,70.1132653 41.0865221,70.1856823 40.990244,70.1884124 C40.1677708,70.2113888 36.9234126,70.2257691 33.7580495,69.1892593 C30.4548026,71.9320005 26.9239605,73.5222323 24.1629446,74.4988902 C24.0466958,74.5399759 23.9236437,74.4562406 23.9624821,74.3634243 C24.5892502,72.8648465 27.9168519,64.8721786 27.665367,64.696999 C26.9123779,64.1724543 25.138512,62.6625255 25.138512,62.6625255 C23.1636915,67.5515702 18.222432,71.4155979 11.8631218,73.0589644 C11.7482731,73.0887492 11.6343138,73.0075157 11.6713648,72.919545 Z" id="Fill-24"></path>
                <path d="M43.4516828,79.9644856 C37.0500679,84.1833272 33.1545012,92.1166553 33.1545012,92.1166553 C33.1545012,92.1166553 49.159874,97.3786908 68.1545012,92.3435624 C68.1545012,92.3435624 64.8366985,83.9150924 58.5483393,79.7149403 C61.9590062,80.897727 56.5215945,78.6287226 51.1422886,78.5271039 C46.1372228,78.4325548 41.182459,80.5673879 43.4516828,79.9644856 Z" id="Fill-23"></path>
                <path d="M50.6666644,84.0612344 C54.0627001,84.0612344 69.5819329,75.3481737 71.6387691,60.5551489 C73.3337299,48.3647783 68.9832178,37.0863596 66.1149941,30.5042274 C63.2467704,23.9220951 67.0691546,17.8167231 66.1610875,10.5904871 C65.7629413,7.42211071 58.9344754,0.669409606 57.6570352,0.703475812 C43.5774004,1.08219307 39.4503856,21.036634 39.4503856,27.1741004 C39.4503856,29.9839221 26.2313289,46.5510699 27.9670525,58.9113342 C30.0226532,73.5494751 47.3080538,84.0612344 50.6666644,84.0612344 Z" id="Oval" fill-rule="nonzero"></path>
            </g>
            <path d="M447.693688,23.8305319 C455.873994,21.2005602 461.188007,25.2279774 463.322934,30.1515743 C466.060802,31.3311105 467.673651,37.4660376 467.673651,37.4660376 C467.673651,37.4660376 456.930708,45.0527017 453.288146,42.0473385 C450.345937,39.6218893 445.873072,38.6468754 441.10435,41.0769729 C435.579528,43.890085 438.386841,39.6719043 438.386841,39.6719043 C438.386841,39.6719043 434.231523,28.1591547 447.693688,23.8305319 Z" id="Fill-26" fill="#CECDC4" transform="translate(452.673651, 32.875776) scale(-1, 1) rotate(27.000000) translate(-452.673651, -32.875776) "></path>
            <path d="M438.386841,39.6719043 C438.386841,39.6719043 434.231523,28.1591547 447.693688,23.8305319 C455.873994,21.2005602 461.188007,25.2279774 463.322934,30.1515743 C466.060802,31.3311105 467.673651,37.4660376 467.673651,37.4660376 C467.673651,37.4660376 456.930708,45.0527017 453.288146,42.0473385 C450.345937,39.6218893 445.873072,38.6468754 441.10435,41.0769729 C435.579528,43.890085 438.386841,39.6719043 438.386841,39.6719043" id="Fill-26" stroke="#000000" stroke-width="3" transform="translate(452.673651, 32.875776) scale(-1, 1) rotate(27.000000) translate(-452.673651, -32.875776) "></path>
            <g id="Group-3" transform="translate(448.050433, 37.929894) scale(-1, 1) rotate(27.000000) translate(-448.050433, -37.929894) translate(444.632712, 34.855360)">
                <polygon id="Fill-30" fill="#010103" points="0.569620253 1.6132408 5.00367966 0.372670807 5.50632911 1.50937404 0.918244089 2.98136646"></polygon>
                <polygon id="Fill-31" fill="#C1000C" points="0.759493671 2.95547244 5.31497797 1.49068323 5.69620253 2.50214575 1.11031725 4.28571429"></polygon>
                <polygon id="Fill-32" fill="#EEB11B" points="1.13924051 4.28455479 5.74566142 2.42236025 6.07594937 3.52998455 1.43824196 5.40372671"></polygon>
                <path d="M4.68784949,0.88304543 L0.659349356,1.7424981 L1.54019673,5.32273343 L5.93700272,3.46121479 L4.68784949,0.88304543 Z M5.32709737,0.256188273 L6.78393471,3.50837527 C6.91750037,3.80548632 6.78241043,4.15334206 6.48155427,4.28482549 L6.45583193,4.29557808 L6.42401243,4.30708524 L1.68100275,6.10578611 L1.65928166,6.11352043 C1.37843177,6.2195372 1.06195167,6.08050809 0.954870507,5.8016953 C0.945534249,5.77868099 0.937722278,5.75245976 0.932387273,5.73020001 L0.0161002217,1.7892813 L0.0115273606,1.77230352 C-0.0427753655,1.53895345 0.0999360093,1.3061693 0.331056033,1.24240832 L4.84446998,0.014349309 C5.03919765,-0.0386590754 5.23945086,0.059623374 5.31776111,0.236192227 L5.32709737,0.256188273 Z" id="Fill-29" fill="#010103"></path>
            </g>
            <circle id="Oval" fill="#FFFFFF" fill-rule="nonzero" cx="462.75" cy="38.1914931" r="1.75"></circle>
            <path d="M452.491455,43.869846 C453.746582,50.3462782 457.63623,51.1231337 461,52.8409071" id="Path-23" stroke="#CECDC4" stroke-width="3" fill-rule="nonzero"></path>
        </g>
    </g>
</svg>